# xmcd
#
# Track frame offsets:
#	183
#	19445
#	36695
#	51183
#	74920
#	93383
#	114133
#	131708
#	159433
#	177770
#
# Disc length: 2562 seconds
# Revision: 2
# Processed by: cddbd v1.5.2PL0 Copyright (c) Steve Scherf et al.
# Submitted via: dBpowerAMP V12.0
#
DISCID=8f0a000a
DTITLE=Son Seals - Bad Axe
DYEAR=1984
DGENRE=Blues
TTITLE0=Don't Pick Me For Your Fool
TTITLE1=Going Home (Where The Women Got Meat On Their Bones)
TTITLE2=Just About To Lose Your Clown
TTITLE3=Friday Again
TTITLE4=Cold Blood
TTITLE5=Out Of My Way
TTITLE6=I Think You're Fooling Me
TTITLE7=I Can Count On My Blues
TTITLE8=Can't Stand To See Her Cry
TTITLE9=Person To Person
EXTD=
EXTT0=
EXTT1=
EXTT2=
EXTT3=
EXTT4=
EXTT5=
EXTT6=
EXTT7=
EXTT8=
EXTT9=
PLAYORDER=
